<svg width="386.782196"
  height="120.000000"
  viewBox="0 0 386.782 120"
  fill="none"
  xmlns="http://www.w3.org/2000/svg"
  xmlns:xlink="http://www.w3.org/1999/xlink">
  <g clip-path="url(#clip2_4)">
    <path id="path"
      d="M118.705 17.6806L64.0524 115.409C62.924 117.427 60.0249 117.439 58.8796 115.431L3.14307 17.69C1.89531 15.5019 3.7664 12.8514 6.24596 13.2946L60.9573 23.074C61.3063 23.1364 61.6637 23.1358 62.0127 23.0722L115.58 13.3087C118.051 12.8582 119.931 15.4881 118.705 17.6806Z"
      fill-rule="evenodd"
      fill="url(#paint_linear_2_5_0)" />
    <path id="path"
      d="M87.0193 0.467646L46.5746 8.39264C45.9098 8.52288 45.4176 9.08623 45.3775 9.7623L42.8896 51.7812C42.8311 52.7709 43.74 53.539 44.7059 53.3162L55.9663 50.7175C57.0199 50.4746 57.9719 51.4025 57.7553 52.462L54.4099 68.8441C54.1848 69.9466 55.2199 70.8894 56.2966 70.5624L63.2516 68.4493C64.3298 68.122 65.3658 69.0674 65.1377 70.1709L59.8212 95.9035C59.4885 97.5131 61.6295 98.3908 62.5224 97.0108L63.1188 96.0891L96.0755 30.3184C96.6273 29.2172 95.6756 27.9615 94.4661 28.1949L82.8754 30.4319C81.7862 30.6419 80.8595 29.6275 81.1669 28.5619L88.732 2.3367C89.0397 1.26925 88.1097 0.254015 87.0193 0.467646Z"
      fill-rule="evenodd"
      fill="url(#paint_linear_2_6_0)" />
    <path id="path"
      d="M82.2419 67.1423C84.1512 66.0842 86.3485 65.4802 88.6877 65.4802C100.232 65.4802 109.59 74.8153 109.59 86.3316C109.59 97.8465 100.232 107.182 88.6877 107.182C86.6161 107.186 84.5893 106.887 82.6072 106.286C80.6251 105.685 78.7742 104.809 77.0546 103.657C81.0816 103.45 84.5145 101.002 86.127 97.5406C86.3084 97.1495 86.4682 96.7456 86.6022 96.3302C88.9229 95.1972 90.8415 93.5872 92.3579 91.5004C94.2119 88.9503 95.307 86.0293 95.307 82.4233C95.307 78.264 93.8507 75.8719 93.845 75.8598C93.625 75.4053 93.36 74.9788 93.0499 74.58C92.7398 74.1812 92.3916 73.819 92.0051 73.4934C91.6186 73.1678 91.2023 72.8858 90.7563 72.6477C90.3103 72.4095 89.8443 72.2202 89.3584 72.0799C88.8724 71.9395 88.3771 71.8512 87.8725 71.8149C87.3679 71.7786 86.8651 71.7951 86.364 71.8644C85.8628 71.9337 85.3744 72.0543 84.8988 72.2262C84.4231 72.3981 83.9706 72.6175 83.5413 72.8844C82.5264 73.5168 81.7182 74.3489 81.1167 75.3808C81.1103 75.3922 81.1031 75.403 81.0974 75.4144C80.9441 75.6804 80.8087 75.9552 80.691 76.2387L80.6695 76.2909C80.6158 76.4253 80.5649 76.5618 80.5176 76.6998L80.5033 76.7456C80.3005 77.3619 80.1838 77.9939 80.1532 78.6416C80.209 77.3781 79.9535 76.1801 79.3867 75.0477Q78.7607 73.7983 77.7197 72.8644C77.7018 72.8458 77.6781 72.8258 77.658 72.8079C77.4457 72.6205 77.2005 72.555 76.9227 72.6113C76.9127 72.6127 76.9012 72.617 76.8912 72.6199C76.9435 72.5205 76.9944 72.4218 77.0489 72.3246C78.2845 70.1032 80.0155 68.3758 82.2419 67.1423ZM80.1521 78.6651C80.1524 78.6572 80.1528 78.6494 80.1532 78.6416C80.1528 78.6494 80.1525 78.6572 80.1521 78.6651Z"
      fill-rule="evenodd"
      fill="url(#paint_linear_2_8_0)" />
    <path id="path"
      d="M93.845 75.8598C93.5603 75.2716 93.202 74.7322 92.77 74.2414C92.3379 73.7507 91.8479 73.3265 91.3001 72.969C90.7522 72.6114 90.1663 72.3334 89.5425 72.1351C88.9186 71.9368 88.2796 71.8253 87.6253 71.8007C86.971 71.7761 86.3254 71.8392 85.6884 71.9901C85.0513 72.141 84.4461 72.3741 83.8728 72.6895C83.2994 73.0048 82.7788 73.391 82.311 73.8479C81.8431 74.3047 81.445 74.8157 81.1167 75.3808C80.9555 75.6571 80.8138 75.9431 80.6918 76.2387L80.6703 76.2909C80.6158 76.4258 80.5651 76.5621 80.5183 76.6998L80.5033 76.7456C80.2969 77.3691 80.1801 78.009 80.1528 78.6651C80.0921 79.9705 80.3692 81.2001 80.9842 82.354C81.4751 83.272 82.1342 84.0479 82.9615 84.6817C84.3885 85.7734 85.4619 87.1453 86.1959 88.783C86.6419 89.7819 86.9252 90.8247 87.0458 91.9114C87.215 93.4161 87.0669 94.8891 86.6015 96.3302C88.9221 95.1968 90.8409 93.5869 92.3579 91.5004C94.2119 88.9503 95.307 86.0293 95.307 82.4233C95.307 78.264 93.8507 75.8719 93.845 75.8598Z"
      fill-rule="evenodd"
      fill="#FFFFFF" />
    <path id="path"
      d="M86.5384 81.8785C86.9137 81.8844 87.2755 81.8178 87.6239 81.6786C87.9723 81.5394 88.2802 81.3385 88.5476 81.0758C88.815 80.8131 89.0211 80.5092 89.166 80.1638C89.311 79.8185 89.3834 79.4587 89.3833 79.0843C89.3832 78.71 89.3106 78.3502 89.1655 78.0049C89.0204 77.6597 88.8141 77.3558 88.5465 77.0933C88.279 76.8308 87.971 76.63 87.6225 76.491C87.2741 76.352 86.9122 76.2855 86.537 76.2916C86.1695 76.2975 85.8169 76.3727 85.4791 76.5172C85.1413 76.6616 84.8435 76.8645 84.5858 77.1259C84.3281 77.3872 84.1296 77.6876 83.9904 78.0269C83.8512 78.3662 83.7816 78.7191 83.7817 79.0858C83.7818 79.4524 83.8516 79.8053 83.9909 80.1445C84.1303 80.4837 84.3289 80.784 84.5868 81.0452C84.8447 81.3065 85.1425 81.5092 85.4804 81.6535C85.8183 81.7977 86.171 81.8728 86.5384 81.8785Z"
      fill-rule="evenodd"
      fill="#060000" />
    <path id="path"
      d="M85.1997 79.7975C85.4351 79.7974 85.6359 79.7143 85.8023 79.5481C85.9686 79.382 86.0517 79.1815 86.0515 78.9467C86.0513 78.7119 85.9679 78.5116 85.8013 78.3457C85.6346 78.1799 85.4336 78.0971 85.1982 78.0974C84.963 78.0977 84.7623 78.1809 84.5962 78.347C84.43 78.5131 84.347 78.7135 84.3472 78.9482C84.3474 79.1828 84.4308 79.383 84.5972 79.5488C84.7636 79.7147 84.9644 79.7975 85.1997 79.7975Z"
      fill-rule="evenodd"
      fill="#FFFFFF" />
    <path id="path"
      d="M82.9536 84.6881C82.1267 84.0541 81.4757 83.2718 80.9849 82.3539C80.5311 82.5204 80.096 82.7263 79.6798 82.9716C80.099 83.8707 80.3081 84.816 80.3069 85.8076C80.3077 86.7625 80.113 87.6759 79.7228 88.5478C79.3561 89.3668 78.8461 90.0843 78.1927 90.7004C79.7698 91.1859 81.3479 91.1892 82.9271 90.7104C84.1728 90.3314 85.2624 89.6889 86.1958 88.783C85.4619 87.1449 84.3811 85.7799 82.9536 84.6881Z"
      fill-rule="evenodd"
      fill="#F5A800" />
    <path id="path"
      d="M80.1442 78.986C80.1442 78.8781 80.1478 78.7716 80.1528 78.665C80.1528 78.665 80.16 78.4413 80.16 78.329C80.1612 77.2866 79.9492 76.2893 79.5239 75.3371C79.0987 74.3849 78.4973 73.5607 77.7197 72.8643C77.7017 72.845 77.681 72.8279 77.6609 72.8107C77.4478 72.6211 77.2027 72.5544 76.9227 72.6106C76.912 72.6134 76.9019 72.6177 76.8912 72.6199C76.3613 72.7774 75.8424 72.9774 75.3445 73.2172C74.8465 73.4569 74.3709 73.7347 73.9176 74.0505C73.4644 74.3663 73.0392 74.7161 72.6422 75.0999C72.2451 75.4837 71.8813 75.8967 71.5506 76.3387C71.22 76.7807 70.9267 77.2462 70.6709 77.7352C70.4151 78.2241 70.2 78.7302 70.0255 79.2536C69.8511 79.7769 69.7195 80.3108 69.6309 80.8552C69.5423 81.3996 69.4977 81.9475 69.4972 82.4991C69.4972 83.3233 69.5975 84.124 69.7803 84.8925C69.7953 84.954 69.8075 85.0155 69.8233 85.0763C70.0278 85.8617 70.321 86.6126 70.703 87.3291C71.0849 88.0456 71.5451 88.7079 72.0836 89.3162C72.6221 89.9244 73.2241 90.4619 73.8896 90.9286C74.5551 91.3953 75.2658 91.7784 76.0218 92.078C75.7761 91.2158 75.6777 90.3372 75.7266 89.4422C75.8075 87.9375 76.2781 86.5658 77.1384 85.3272C78.1061 83.9316 79.388 82.9403 80.9841 82.3532C80.4228 81.3007 80.1428 80.1783 80.1442 78.986Z"
      fill-rule="evenodd"
      fill="#FFD100" />
  </g>
  <path id="开发笔记"
    d="M305.532 87.25C300.032 87.4167 294.782 87 289.782 86C289.282 86 288.699 85.8333 288.032 85.5C287.366 85.3333 286.782 84.8333 286.282 84C286.116 84 285.699 83.8333 285.032 83.5C283.532 82.8333 282.532 81.4167 282.032 79.25L282.032 79L280.032 79C276.866 79 274.532 78.9167 273.032 78.75C272.199 78.75 271.616 78.3333 271.282 77.5C271.282 77.1667 271.199 76.9167 271.032 76.75L270.032 76.75C269.199 76.75 268.616 76.3333 268.282 75.5C268.116 74.8333 268.032 74 268.032 73C268.032 71.5 268.199 70.4167 268.532 69.75C268.699 69.25 269.032 68.9167 269.532 68.75L274.282 68.75C273.949 68.75 273.616 68.5 273.282 68C272.949 67 272.782 66.1667 272.782 65.5C272.782 64.3333 273.116 63.1667 273.782 62C273.782 61.6667 273.866 61.4167 274.032 61.25L273.282 60.5Q272.532 58.5 272.532 56.5C272.532 55.6667 272.616 55 272.782 54.5C273.116 53.8333 273.449 53.5 273.782 53.5L272.282 52C270.949 51.6667 269.866 50.8333 269.032 49.5C268.532 49 268.449 48.3333 268.782 47.5L273.782 33.75Q274.282 32.5 275.282 32.5L276.532 32.5C278.199 32.5 279.616 32.8333 280.782 33.5C281.282 33.8333 281.699 34.25 282.032 34.75L283.782 35.5C284.282 35.6667 284.699 36.0833 285.032 36.75L285.782 37L287.532 37.25C288.199 37.4167 289.366 37.75 291.032 38.25L291.532 38.25Q292.032 38.75 292.282 39.5L292.282 39.75C293.116 39.75 293.699 39.9167 294.032 40.25L294.532 40.25L294.782 40.5L297.782 33Q298.282 31.75 299.282 31.75C299.616 31.5833 300.199 31.5 301.032 31.5C302.366 31.5 303.699 32 305.032 33Q305.782 33.25 305.782 33.75Q306.532 34 308.032 35L309.032 36.25Q316.532 37.5 316.532 38.5L316.782 39.25C318.616 39.75 319.532 40.1667 319.532 40.5C319.866 41.8333 320.032 42.6667 320.032 43C320.032 44.6667 319.449 46.0833 318.282 47.25C317.949 47.75 317.282 48 316.282 48L315.782 47.75L316.282 48.25C317.116 48.75 317.282 49.4167 316.782 50.25Q315.532 54 313.032 54.75L313.282 56.25Q313.282 57.25 312.532 58.75C312.199 59.4167 311.782 59.75 311.282 59.75L310.532 60C310.199 60 309.532 60.1667 308.532 60.5C308.866 60.5 309.199 60.8333 309.532 61.5C309.532 61.8333 309.616 62.0833 309.782 62.25L310.782 62.25C311.616 62.25 312.199 62.6667 312.532 63.5C312.699 64.1667 312.782 65 312.782 66C312.782 67 312.699 67.75 312.532 68.25L313.282 68.25C314.116 68.25 314.782 68.5833 315.282 69.25L315.532 70.25L316.282 70.25C317.116 70.25 317.782 70.5833 318.282 71.25C318.616 72.25 318.782 73 318.782 73.5C318.782 74 318.616 74.9167 318.282 76.25C317.949 77.0833 317.616 77.5833 317.282 77.75C316.616 78.0833 316.032 78.25 315.532 78.25L304.782 78.25L304.782 78.75L305.532 78.75C306.532 78.75 307.116 79 307.282 79.5C307.782 80.5 308.032 81.5833 308.032 82.75C308.032 83.25 307.866 84.3333 307.532 86C307.199 86.8333 306.532 87.25 305.532 87.25ZM301.282 45.75L302.282 42.25L314.032 44.5C315.366 43.1667 315.782 41.4167 315.282 39.25C314.116 38.75 310.449 38 304.282 37L304.782 34.75C303.282 33.25 301.449 32.75 299.282 33.25Q294.532 45.25 294.032 47.75C295.366 49.5833 297.199 50.3333 299.532 50L301.282 45.75ZM178.282 86.25C177.449 86.25 176.616 86.0833 175.782 85.75C174.949 85.4167 174.532 85 174.532 84.5L174.282 84.25C172.449 83.9167 171.532 83.3333 171.532 82.5L171.282 81.75C171.282 81.9167 171.116 80.3333 170.782 77L169.782 67L159.282 67.5L154.782 82.25L154.282 83.5C153.949 83.8333 153.616 84.0833 153.282 84.25C152.616 84.5833 151.949 84.75 151.282 84.75C149.282 84.4167 147.782 83.5833 146.782 82.25C145.782 82.0833 144.782 81.5 143.782 80.5C143.282 79.8333 143.199 79.25 143.532 78.75L143.782 77.75Q143.782 76.75 144.532 74.5L146.282 68L144.282 68C143.449 68 142.866 67.5833 142.532 66.75L142.282 66L141.282 66C140.449 66 139.866 65.5833 139.532 64.75L138.782 62.5L138.782 61.5C138.782 60.6667 138.866 59.9167 139.032 59.25Q139.532 58 140.782 58L148.782 57.5Q150.532 50.75 151.657 47.75Q152.782 44.75 154.032 44.75C154.866 44.75 155.449 44.8333 155.782 45L158.032 45.5Q159.532 46.25 160.032 46.75L160.532 47.5L161.032 47.5C162.032 48 162.699 48.4167 163.032 48.75C163.699 49.25 163.866 49.9167 163.532 50.75L161.782 57L168.282 56.5Q168.032 55 167.532 50.5Q167.032 46 167.532 45L152.032 43.25Q151.532 43.25 150.532 42.75L149.782 42L149.782 41.5L149.532 41.5L149.032 41.25Q148.532 41.25 147.532 40.75L146.782 40L146.782 39.5Q146.282 38 146.282 37.25Q146.282 35.25 147.282 34Q147.782 33.25 149.032 33.25L181.782 36.5Q182.782 36.5 183.282 37.75L183.532 38.25L184.782 38.5Q185.782 38.5 186.282 39.75C186.449 40.4167 186.532 41.25 186.532 42.25C186.532 43.75 186.366 44.9167 186.032 45.75C185.532 46.4167 184.866 46.75 184.032 46.75L178.282 46C178.949 47.5 179.532 50.8333 180.032 56L187.532 55.75C188.532 55.75 189.116 56 189.282 56.5L190.032 57.75L190.532 57.75C191.532 57.75 192.116 58 192.282 58.5Q193.532 60 193.032 64.5Q193.032 66 191.532 66L181.282 66.5L182.532 78.75L182.782 84C182.782 84.6667 182.324 85.2083 181.407 85.625C180.491 86.0417 179.449 86.25 178.282 86.25ZM222.532 86.25Q223.532 88 226.282 88.5C226.949 88.5 227.532 88.25 228.032 87.75L235.532 82L235.782 82L238.282 83.75L239.782 84.5L241.032 85.5C242.532 86.6667 244.032 87.5833 245.532 88.25C247.366 88.75 249.199 87.0833 251.032 83.25C251.532 82.4167 251.449 81.75 250.782 81.25C250.116 80.75 248.866 79.9167 247.032 78.75Q246.282 78 245.532 77.625C245.032 77.375 244.532 77.0833 244.032 76.75L242.782 76L249.032 71C250.366 69.6667 251.199 67.8333 251.532 65.5C252.032 63.3333 251.699 61.4167 250.532 59.75C250.366 59.4167 249.866 58.8333 249.032 58C248.699 57.6667 248.199 57.3333 247.532 57Q247.032 57 246.782 56.75L246.032 56C245.699 55.6667 245.199 55.3333 244.532 55Q243.532 54.5 243.032 54.5L240.282 54.25C248.616 53.9167 253.199 53.5833 254.032 53.25L254.282 52.5C254.449 52.3333 254.532 51.9167 254.532 51.25L254.782 49.5C254.782 47.8333 254.366 46.5833 253.532 45.75C253.199 45.4167 252.532 45.25 251.532 45.25L251.032 44.5C251.866 43.6667 252.282 42.8333 252.282 42Q252.282 40.75 251.532 40L251.532 39.75L247.532 35.75Q246.532 35.25 246.032 35.25L244.532 33.75Q243.532 33.25 243.032 33.25C241.032 33.25 239.366 34.75 238.032 37.75C237.532 38.4167 237.616 39.0833 238.282 39.75L242.282 43.5L239.532 43.75Q237.532 44 233.532 44L235.032 40.5Q235.282 39 232.782 37.25C232.449 37.0833 232.032 37 231.532 37C231.032 36.3333 230.449 35.75 229.782 35.25C228.782 34.9167 228.116 34.75 227.782 34.75L225.532 34.75C224.699 34.75 224.032 35.1667 223.532 36L220.032 43.25L219.782 43.25L220.282 41C220.282 39.6667 219.449 38.75 217.782 38.25L217.282 38C216.616 37 215.782 36.4167 214.782 36.25C214.449 36.0833 213.866 36 213.032 36L212.032 36C211.032 36 210.199 36.25 209.532 36.75Q208.782 37.5 208.782 38.5L206.782 47.5C206.616 47.8333 206.532 48.4167 206.532 49.25C206.699 51.25 207.866 52.5 210.032 53C210.866 54.1667 211.949 54.8333 213.282 55L214.532 55L205.532 74.25C205.199 74.75 205.282 75.4167 205.782 76.25L207.532 77.75L209.282 78.5L210.532 79.75C211.699 80.5833 213.116 81 214.782 81L215.282 81C216.116 80.6667 216.699 80.25 217.032 79.75L221.032 71.75C221.699 72.4167 223.032 73.3333 225.032 74.5L218.782 79.5C218.282 80.3333 218.116 81 218.282 81.5C219.116 84.5 220.532 86.0833 222.532 86.25ZM277.282 46.75L278.282 43Q279.032 43.25 280.157 43.25C280.907 43.25 281.616 43.3333 282.282 43.5L289.782 45C290.782 43.1667 291.199 41.4167 291.032 39.75Q288.532 39 287.282 38.75L280.282 37.75L280.782 35.25C279.282 34.0833 277.449 33.6667 275.282 34L270.032 48.5C271.366 50.5 273.282 51.25 275.782 50.75L277.282 46.75ZM356.282 86C356.782 86.1667 357.366 86.25 358.032 86.25L384.532 86C385.532 86 386.116 85.5833 386.282 84.75C386.616 83.75 386.782 82.9167 386.782 82.25C386.782 81.75 386.616 80.8333 386.282 79.5C385.949 78.6667 385.366 78.25 384.532 78.25L383.532 78.25C383.366 78.0833 383.282 77.8333 383.282 77.5C382.949 76.6667 382.366 76.25 381.532 76.25L361.782 76.5C361.782 72 361.866 67.5833 362.032 63.25L373.282 62.75Q374.532 62.75 374.782 62L375.032 62.25C375.699 62.5833 376.866 62.75 378.532 62.75C379.532 62.75 380.366 62.6667 381.032 62.5C381.866 62.1667 382.282 61.6667 382.282 61C382.449 59.5 382.532 56.8333 382.532 53C382.532 48.6667 382.616 45.0833 382.782 42.25C382.449 38.9167 381.032 37 378.532 36.5C377.866 35.5 376.782 34.8333 375.282 34.5Q358.282 35 353.032 35.25C352.032 35.25 351.449 35.5833 351.282 36.25C350.949 37.25 350.782 38.0833 350.782 38.75Q350.782 40 351.532 42C351.699 42.6667 352.282 43 353.282 43L354.282 43L354.532 44C354.699 44.6667 355.282 45 356.282 45L371.532 44.5L371.532 53.25C371.366 53.0833 371.032 53 370.532 53C363.532 52.8333 358.282 53 354.782 53.5C353.616 53.6667 352.657 54.25 351.907 55.25C351.157 56.25 350.699 57.5 350.532 59L350.282 72.25L348.782 72.25L350.032 61.25L350.782 54.75L350.782 54.5C350.782 52.8333 349.699 51.75 347.532 51.25C347.366 50.4167 346.449 49.8333 344.782 49.5C345.782 48.8333 346.616 48.0833 347.282 47.25C348.449 46.4167 349.032 45.3333 349.032 44L348.782 43.25L347.782 42L342.532 37.75C342.366 37.5833 342.116 37.5 341.782 37.5L339.532 35.75C338.366 34.9167 336.949 35.5 335.282 37.5C334.116 39.1667 333.532 40.5 333.532 41.5L333.532 42C333.532 42.3333 333.782 42.75 334.282 43.25L339.282 47.25C339.949 47.5833 340.366 47.75 340.532 47.75L342.282 49.25L342.532 49.25C338.366 49.5833 334.782 50.0833 331.782 50.75Q330.782 50.75 330.282 51.5C329.616 52.1667 329.282 53.1667 329.282 54.5C329.282 55.6667 329.491 56.7083 329.907 57.625C330.324 58.5417 330.866 59 331.532 59L332.532 58.75C332.699 59.5833 333.032 60.25 333.532 60.75C334.032 61.0833 334.699 61.0833 335.532 60.75L336.782 60.75Q337.782 60.75 338.282 60.5C338.282 61.1667 338.116 62.6667 337.782 65L337.032 76.5C337.032 77.3333 337.116 77.9167 337.282 78.25C337.949 79.25 338.949 79.9167 340.282 80.25C341.282 81.75 342.866 82.5 345.032 82.5L351.282 82.75C351.616 83.25 352.282 83.6667 353.282 84L354.032 84.25C354.366 85.25 355.116 85.8333 356.282 86ZM181.532 43.25C181.866 42.5833 182.032 41.5833 182.032 40.25C182.032 39.25 181.949 38.5 181.782 38L148.532 34.75Q147.782 35.75 147.782 37.25Q147.782 37.75 148.282 39.75L181.532 43.25ZM246.032 42.5C245.032 43.3333 244.366 43.5833 244.032 43.25L239.282 38.5Q241.282 34.75 243.032 34.75L243.282 34.75Q244.032 35.25 246.282 37.5L247.282 38.75L248.032 40C247.699 40.6667 247.032 41.5 246.032 42.5ZM236.157 80.5C235.074 79.8333 233.866 79 232.532 78L223.782 85C221.616 85 220.199 83.6667 219.532 81L227.532 74.5Q221.532 70.5 221.282 70C221.616 68.3333 222.282 67.1667 223.282 66.5L224.782 65.75L232.532 70.75Q240.532 64.25 240.782 63.75C241.116 62.5833 240.782 61.9167 239.782 61.75C239.449 61.5833 238.532 61.5 237.032 61.5Q231.282 61.5 219.282 63.25Q213.032 76.75 212.282 77.5C210.449 77.5 209.199 77.1667 208.532 76.5L206.782 75L217.782 51.5L210.532 51.5C208.866 51.3333 208.032 50.3333 208.032 48.5L210.282 38.25C210.782 37.75 211.366 37.5 212.032 37.5L213.782 37.5C215.116 37.8333 215.782 38.25 215.782 38.75L215.032 42.75C214.866 43.25 214.782 43.7917 214.782 44.375C214.782 44.9583 214.699 45.5 214.532 46L220.282 46L225.532 35.5L228.282 36.25Q230.532 37.25 230.532 38.25L229.282 41.25L227.282 45.75C229.616 45.75 231.532 45.6667 233.032 45.5Q237.282 45.5 239.532 45.25L249.282 44.75C249.949 45.25 250.282 46.0833 250.282 47.25L250.032 50C249.866 50.1667 244.199 50.5 233.032 51C232.032 51.1667 230.616 51.25 228.782 51.25L224.782 51.25C224.616 51.9167 224.199 52.9167 223.532 54.25L222.032 57.25Q234.032 55.75 239.532 55.75C241.199 55.75 242.282 55.8333 242.782 56L244.532 56.75C245.532 57.4167 246.116 58 246.282 58.5C246.949 59.3333 247.282 60.3333 247.282 61.5C247.282 62.3333 247.199 62.9167 247.032 63.25C246.866 65.0833 246.199 66.5833 245.032 67.75L237.282 74L246.782 80.5C245.282 83.3333 244.116 84.75 243.282 84.75L243.032 84.75C241.366 83.9167 239.949 83.0833 238.782 82.25C238.116 81.75 237.241 81.1667 236.157 80.5ZM378.032 51C378.032 54.8333 377.949 57.5 377.782 59C377.282 59.1667 376.532 59.25 375.532 59.25Q373.532 59.25 372.532 58.75L373.032 51.75L373.032 41L353.032 41.5Q352.282 40 352.282 38.75C352.282 38.4167 352.449 37.75 352.782 36.75Q357.782 36.25 375.282 36C376.949 36.1667 377.949 37.5833 378.282 40.25C378.116 43.0833 378.032 46.6667 378.032 51ZM343.282 44.25C342.116 45.4167 341.199 46.0833 340.532 46.25L335.032 41.75L335.032 41.5Q335.032 40.25 336.532 38.5C337.199 37.5 337.866 37 338.532 37L338.782 37L344.532 41.75C344.532 42.5833 344.116 43.4167 343.282 44.25ZM308.782 51.5Q311.532 51 312.532 47.5L307.532 43.75C306.199 44.0833 305.032 45.3333 304.032 47.5L308.782 51.5ZM175.282 82.75Q177.532 82.75 178.282 82L178.032 76.75L176.532 63L188.532 62.5L188.782 60C188.782 58.8333 188.532 57.9167 188.032 57.25L176.032 57.75C175.032 49.5833 174.366 45.3333 174.032 45C173.032 44.6667 172.116 44.5833 171.282 44.75C169.782 44.9167 168.949 45.25 168.782 45.75Q168.532 46 170.032 58L156.282 58.75L159.282 48C158.949 47.6667 158.366 47.3333 157.532 47L154.782 46.25L154.032 46.25Q153.532 46.25 150.032 59L140.532 59.5Q140.032 61.25 140.282 62L141.032 64.5L148.782 64.25Q146.532 72.5 146.032 74.75L144.782 79.5C145.616 80.3333 146.866 80.9167 148.532 81.25C149.199 81.25 149.699 81.0833 150.032 80.75L155.032 64L170.782 63.25L170.782 63.5L172.282 77L172.782 82.25C173.116 82.5833 173.949 82.75 175.282 82.75ZM283.782 52.75C285.616 52.5833 286.949 51.3333 287.782 49L283.532 44.75C281.699 44.9167 280.366 46.1667 279.532 48.5L283.782 52.75ZM295.782 51Q293.782 50.25 292.782 48.5L292.282 48.5L289.782 47.75L291.532 49.75Q292.282 50.5 292.282 51.25L295.782 51ZM347.532 79.25C345.532 79.25 343.699 79.1667 342.032 79C340.199 79 339.032 78.4167 338.532 77.25L339.282 65.25Q340.032 59.5 340.032 56.5L331.532 57.5Q330.782 56.75 330.782 54.5Q330.782 53 331.532 52.25C334.866 51.4167 338.699 50.9167 343.032 50.75C345.199 50.75 346.282 51.3333 346.282 52.5L345.532 59C344.532 68.1667 344.116 73 344.282 73.5C344.616 73.6667 346.532 73.75 350.032 73.75C350.199 73.9167 350.282 74.6667 350.282 76C350.282 77.6667 350.199 78.6667 350.032 79C349.866 79.1667 349.032 79.25 347.532 79.25ZM303.032 83.75C303.366 83.0833 303.532 82.0833 303.532 80.75C303.532 79.5833 303.366 78.75 303.032 78.25Q295.282 78.75 290.282 77.5C290.282 77 290.449 76.0833 290.782 74.75L313.532 74.75C314.366 72.5833 314.449 70.9167 313.782 69.75C310.449 69.5833 306.032 69.5 300.532 69.5C296.199 69.5 293.199 69.5833 291.532 69.75L292.282 67L302.532 67C305.366 67 307.116 66.9167 307.782 66.75C308.116 66.25 308.282 65.3333 308.282 64C308.282 63 308.199 62.25 308.032 61.75C306.032 61.5833 303.366 61.5 300.032 61.5L293.532 62L294.532 58.25C294.032 58.25 296.949 57.9167 303.282 57.25L308.282 56.25C308.616 55.25 308.782 54.5833 308.782 54.25C308.782 53.4167 308.366 52.4167 307.532 51.25L274.282 54.75C274.116 55.0833 274.032 55.6667 274.032 56.5Q274.032 58 274.782 60L282.782 59.5L287.782 59L287.032 62C284.866 62.1667 282.199 62.25 279.032 62.25L275.032 62.25Q274.282 64 274.282 65.5C274.282 65.8333 274.449 66.5 274.782 67.5L286.032 67.25L285.282 70L270.032 70.25C269.699 70.75 269.532 71.6667 269.532 73C269.532 74 269.616 74.75 269.782 75.25L277.032 75.5L284.282 75.25L283.532 78.5C283.699 80.5 284.616 81.8333 286.282 82.5C291.116 83.5 296.699 83.9167 303.032 83.75ZM281.282 52.5L280.782 51.75C280.616 51.9167 280.532 52.1667 280.532 52.5L281.282 52.5ZM382.282 80.25C382.282 80.75 382.116 81.5 381.782 82.5L354.282 82.75C352.782 82.5833 352.032 81.75 352.032 80.25L351.782 72.25L352.032 59.25Q352.532 55.25 355.032 55C358.199 54.5 363.449 54.3333 370.782 54.5C370.949 55.1667 371.032 56 371.032 57C371.032 58 370.866 58.75 370.532 59.25L357.532 59.75L357.282 71.25C357.282 72.9167 357.324 74.125 357.407 74.875C357.491 75.625 357.532 76.0833 357.532 76.25C357.366 77.4167 357.699 78 358.532 78L359.032 78L381.782 77.75C382.116 79.0833 382.282 79.9167 382.282 80.25ZM228.782 54.75L231.532 54.75L228.782 55L228.782 54.75ZM232.532 69L228.032 66L237.032 65L232.532 69Z"
    fill-rule="evenodd"
    fill="url(#paint_linear_4_23_0)" />
  <defs>
    <clipPath id="clip2_4">
      <rect id="logo" width="121.782188" height="120.000000" fill="white" />
    </clipPath>
    <linearGradient id="paint_linear_2_5_0"
      x1="1.782227"
      y1="9.801941"
      x2="69.802025"
      y2="102.178207"
      gradientUnits="userSpaceOnUse">
      <stop stop-color="#41D1FF" />
      <stop offset="1.000000" stop-color="#BD34FE" />
    </linearGradient>
    <linearGradient id="paint_linear_2_6_0"
      x1="57.817135"
      y1="2.619265"
      x2="70.121582"
      y2="87.026436"
      gradientUnits="userSpaceOnUse">
      <stop stop-color="#FFEA83" />
      <stop offset="0.083333" stop-color="#FFDD35" />
      <stop offset="1.000000" stop-color="#FFA800" />
    </linearGradient>
    <linearGradient id="paint_linear_2_8_0"
      x1="83.736687"
      y1="65.480156"
      x2="93.228638"
      y2="107.182442"
      gradientUnits="userSpaceOnUse">
      <stop stop-color="#41D1FF" stop-opacity="0.988235" />
      <stop offset="0.740458" stop-color="#BD34FE" />
      <stop offset="1.000000" stop-color="#BD34FE" />
    </linearGradient>
    <linearGradient id="paint_linear_4_23_0"
      x1="404.500061"
      y1="31.500000"
      x2="150.000046"
      y2="88.500000"
      gradientUnits="userSpaceOnUse">
      <stop stop-color="#BD34FE" />
      <stop offset="0.981032" stop-color="#41D1FF" stop-opacity="0.988235" />
    </linearGradient>
  </defs>
</svg>
