<svg width="410.000000" height="404.000000" viewBox="0 0 410 404" fill="none" xmlns="http://www.w3.org/2000/svg" xmlns:xlink="http://www.w3.org/1999/xlink">
	<g clip-path="url(#clip2_4)">
		<path d="M399.641 59.5246L215.643 388.545C211.844 395.338 202.084 395.378 198.228 388.618L10.5817 59.5563C6.38087 52.1896 12.6802 43.2665 21.0281 44.7586L205.223 77.6824C206.398 77.8924 207.601 77.8904 208.776 77.6763L389.119 44.8058C397.439 43.2894 403.768 52.1434 399.641 59.5246Z" fill-rule="nonzero" fill="url(#paint_linear_2_5_0)"/>
		<path d="M292.965 1.5744L156.801 28.2552C154.563 28.6937 152.906 30.5903 152.771 32.8664L144.395 174.33C144.198 177.662 147.258 180.248 150.51 179.498L188.42 170.749C191.967 169.931 195.172 173.055 194.443 176.622L183.18 231.775C182.422 235.487 185.907 238.661 189.532 237.56L212.947 230.446C216.577 229.344 220.065 232.527 219.297 236.242L201.398 322.875C200.278 328.294 207.486 331.249 210.492 326.603L212.5 323.5L323.454 102.072C325.312 98.3645 322.108 94.137 318.036 94.9228L279.014 102.454C275.347 103.161 272.227 99.746 273.262 96.1583L298.731 7.86688C299.767 4.27313 296.636 0.855179 292.965 1.5744Z" fill-rule="nonzero" fill="url(#paint_linear_2_6_0)"/>
		<path d="M276.881 226.046C283.309 222.484 290.707 220.45 298.582 220.45C337.448 220.45 368.955 251.878 368.955 290.65C368.955 329.417 337.448 360.847 298.582 360.847C291.608 360.858 284.784 359.853 278.111 357.83C271.438 355.807 265.206 352.856 259.417 348.977C272.975 348.281 284.532 340.04 289.961 328.387C290.571 327.07 291.11 325.71 291.561 324.312Q303.28 318.59 310.938 308.051C317.18 299.466 320.867 289.632 320.867 277.492C320.867 263.489 315.964 255.436 315.945 255.395Q314.834 253.1 313.268 251.086C312.224 249.743 311.052 248.524 309.75 247.428C308.449 246.331 307.048 245.382 305.546 244.58C304.045 243.778 302.476 243.141 300.84 242.669C299.204 242.196 297.536 241.899 295.837 241.777C294.139 241.655 292.446 241.71 290.759 241.943Q288.228 242.293 285.826 243.161C284.224 243.74 282.701 244.479 281.256 245.377Q276.13 248.571 273.093 253.782C273.071 253.821 273.047 253.857 273.028 253.895C272.512 254.791 272.056 255.716 271.66 256.67L271.587 256.846C271.406 257.298 271.235 257.758 271.076 258.223L271.028 258.377C270.345 260.452 269.952 262.58 269.849 264.76C270.037 260.506 269.177 256.473 267.268 252.66Q265.161 248.454 261.656 245.31C261.596 245.247 261.516 245.18 261.449 245.12C260.734 244.489 259.908 244.268 258.973 244.458C258.939 244.463 258.901 244.477 258.867 244.487C259.043 244.152 259.214 243.82 259.398 243.493Q265.638 232.275 276.881 226.046ZM269.845 264.839Q269.847 264.8 269.849 264.76C269.848 264.786 269.847 264.813 269.845 264.839Z" fill-rule="evenodd" fill="url(#paint_linear_2_8_0)"/>
		<path d="M315.945 255.395C314.986 253.415 313.78 251.598 312.326 249.946C310.871 248.294 309.221 246.866 307.377 245.662C305.532 244.458 303.56 243.523 301.46 242.855C299.359 242.187 297.208 241.812 295.005 241.729C292.803 241.646 290.629 241.859 288.484 242.367C286.339 242.875 284.302 243.659 282.372 244.721C280.441 245.783 278.689 247.083 277.114 248.621C275.538 250.159 274.198 251.88 273.093 253.782C272.55 254.712 272.073 255.675 271.662 256.67L271.59 256.846C271.406 257.3 271.236 257.759 271.078 258.223L271.028 258.377C270.333 260.476 269.94 262.63 269.848 264.839C269.643 269.234 270.576 273.374 272.647 277.258C274.299 280.349 276.518 282.961 279.304 285.095C284.108 288.77 287.722 293.389 290.193 298.903C291.694 302.266 292.648 305.776 293.054 309.435C293.624 314.501 293.125 319.46 291.558 324.312C299.371 320.496 305.831 315.076 310.938 308.051C317.18 299.466 320.867 289.632 320.867 277.492C320.867 263.489 315.964 255.436 315.945 255.395Z" fill-rule="evenodd" fill="#FFFFFF"/>
		<path d="M291.346 275.658C292.609 275.678 293.827 275.453 295 274.984C296.173 274.516 297.21 273.839 298.11 272.955C299.01 272.071 299.704 271.048 300.192 269.885C300.68 268.722 300.924 267.511 300.924 266.251C300.923 264.99 300.679 263.779 300.19 262.617C299.702 261.454 299.007 260.431 298.107 259.547C297.206 258.664 296.169 257.988 294.996 257.52C293.823 257.052 292.604 256.828 291.341 256.848C290.104 256.868 288.917 257.122 287.78 257.608C286.642 258.094 285.64 258.777 284.772 259.657C283.904 260.537 283.236 261.548 282.768 262.69C282.299 263.833 282.065 265.021 282.065 266.255C282.065 267.49 282.3 268.678 282.769 269.82C283.239 270.962 283.907 271.973 284.776 272.852C285.644 273.732 286.646 274.414 287.784 274.9C288.921 275.386 290.109 275.638 291.346 275.658Z" fill-rule="evenodd" fill="#060000"/>
		<path d="M286.839 268.651C287.631 268.651 288.308 268.371 288.868 267.812C289.428 267.253 289.707 266.578 289.707 265.787C289.706 264.997 289.425 264.322 288.864 263.764C288.303 263.206 287.627 262.927 286.834 262.928C286.042 262.929 285.366 263.209 284.807 263.768C284.248 264.328 283.968 265.002 283.969 265.792C283.97 266.582 284.25 267.256 284.81 267.814C285.371 268.373 286.047 268.652 286.839 268.651Z" fill-rule="evenodd" fill="#FFFFFF"/>
		<path d="M279.277 285.117C276.493 282.982 274.302 280.348 272.649 277.258C271.121 277.819 269.657 278.512 268.255 279.338C269.667 282.365 270.37 285.547 270.366 288.886C270.369 292.1 269.714 295.176 268.4 298.111C267.166 300.868 265.449 303.284 263.249 305.358C268.558 306.992 273.871 307.004 279.188 305.392C283.382 304.116 287.05 301.953 290.193 298.903C287.722 293.388 284.083 288.792 279.277 285.117Z" fill-rule="evenodd" fill="#F5A800"/>
		<path d="M269.819 265.92C269.819 265.556 269.831 265.198 269.848 264.839C269.848 264.839 269.872 264.086 269.872 263.708C269.876 260.198 269.162 256.841 267.731 253.635C266.299 250.429 264.274 247.654 261.656 245.31C261.596 245.245 261.526 245.187 261.458 245.129C260.741 244.491 259.916 244.266 258.973 244.456C258.937 244.465 258.903 244.48 258.867 244.487C257.083 245.017 255.336 245.691 253.66 246.498C251.983 247.305 250.382 248.24 248.856 249.303C247.33 250.367 245.899 251.544 244.562 252.836C243.225 254.129 242 255.519 240.887 257.007C239.774 258.495 238.787 260.062 237.925 261.708C237.064 263.354 236.34 265.058 235.753 266.82C235.165 268.582 234.722 270.38 234.424 272.212C234.126 274.045 233.976 275.89 233.974 277.747C233.974 280.522 234.312 283.218 234.927 285.805C234.978 286.012 235.019 286.219 235.072 286.423C235.76 289.068 236.747 291.596 238.033 294.008C239.319 296.42 240.869 298.65 242.681 300.698C244.494 302.746 246.521 304.555 248.762 306.126C251.002 307.697 253.395 308.987 255.94 309.996C255.113 307.093 254.782 304.135 254.946 301.122C255.219 296.056 256.803 291.438 259.699 287.268C262.957 282.57 267.273 279.232 272.647 277.256C270.757 273.712 269.814 269.934 269.819 265.92Z" fill-rule="evenodd" fill="#FFD100"/>
	</g>
	<defs>
		<clipPath id="clip2_4">
			<rect id="logo" width="410.000000" height="404.000000" fill="white"/>
		</clipPath>
		<linearGradient id="paint_linear_2_5_0" x1="6.000198" y1="32.999832" x2="235.000122" y2="344.000000" gradientUnits="userSpaceOnUse">
			<stop stop-color="#41D1FF"/>
			<stop offset="1.000000" stop-color="#BD34FE"/>
		</linearGradient>
		<linearGradient id="paint_linear_2_6_0" x1="194.651123" y1="8.818170" x2="236.075974" y2="292.989014" gradientUnits="userSpaceOnUse">
			<stop stop-color="#FFEA83"/>
			<stop offset="0.083333" stop-color="#FFDD35"/>
			<stop offset="1.000000" stop-color="#FFA800"/>
		</linearGradient>
		<linearGradient id="paint_linear_2_8_0" x1="281.913513" y1="220.449829" x2="313.869720" y2="360.847534" gradientUnits="userSpaceOnUse">
			<stop stop-color="#41D1FF" stop-opacity="0.988235"/>
			<stop offset="0.740458" stop-color="#BD34FE"/>
			<stop offset="1.000000" stop-color="#BD34FE"/>
		</linearGradient>
	</defs>
</svg>
