<svg
  viewBox="0 0 1024 1024"
  version="1.1"
  xmlns="http://www.w3.org/2000/svg"
  width="200"
  height="200"
>
  <path d="M531.114667 299.008a32.312889 32.312889 0 0 0-32.312889 32.312889v161.450667H380.416a32.312889 32.312889 0 0 0 0 64.625777h150.698667a32.312889 32.312889 0 0 0 32.312889-32.312889V331.320889a32.312889 32.312889 0 0 0-32.312889-32.312889z"></path>
  <path d="M490.097778 96.597333C279.893333 107.576889 107.576889 279.893333 96.597333 490.097778a416.654222 416.654222 0 0 0 383.601778 437.816889 29.980444 29.980444 0 0 0 32.426667-29.809778 29.525333 29.525333 0 0 0-27.249778-29.525333 357.376 357.376 0 0 1-327.566222-396.8c18.204444-163.555556 150.414222-295.822222 314.026666-314.026667a357.432889 357.432889 0 0 1 396.743112 327.68c1.251556 15.36 14.108444 27.192889 29.525333 27.192889a29.980444 29.980444 0 0 0 29.809778-32.426667 416.654222 416.654222 0 0 0-437.816889-383.601778z"></path>
  <path d="M873.699556 714.126222h-99.214223v-99.214222a29.809778 29.809778 0 1 0-59.505777 0v99.214222h-99.100445a29.809778 29.809778 0 1 0 0 59.448889h99.100445v99.214222a29.809778 29.809778 0 0 0 59.505777 0v-99.214222h99.214223a29.809778 29.809778 0 1 0 0-59.448889z"></path>
</svg>
