<svg
  viewBox="0 0 1024 1024"
  version="1.1"
  xmlns="http://www.w3.org/2000/svg"
  width="200"
  height="200"
>
  <path d="M694.4 419.2a272 272 0 1 1 0 544 272 272 0 0 1 0-544zM290.56 66.944c5.76 0 10.688 3.84 12.16 8.96l0.448 3.264v47.168h416v-47.168a12.16 12.16 0 0 1 9.216-11.84l3.392-0.384h34.176c5.824 0 10.688 3.84 12.16 8.96l0.448 3.264v47.168h59.52c62.464 0 113.664 48.384 118.4 109.504l0.384 9.28v118.912h-832v475.52a59.52 59.52 0 0 0 52.48 58.88l6.976 0.448H423.68v59.392H184.32a118.912 118.912 0 0 1-118.464-109.44l-0.384-9.28V245.12c0-62.464 48.192-113.664 109.568-118.4l9.28-0.384h59.456v-47.168a12.16 12.16 0 0 1 9.152-11.84l3.456-0.384h34.176z m403.84 408.832a213.888 213.888 0 0 0-152.192 63.04 214.592 214.592 0 0 0-63.04 152.32 213.888 213.888 0 0 0 63.04 152.192 214.592 214.592 0 0 0 152.256 63.04 213.888 213.888 0 0 0 152.256-63.04 214.592 214.592 0 0 0 63.04-152.256 213.888 213.888 0 0 0-63.04-152.256 214.592 214.592 0 0 0-152.32-63.04z m0 19.008c13.952 0 25.6 10.048 27.968 23.232l0.448 5.12-0.064 139.584h83.84c12.16 0 22.592 7.68 26.624 18.496l1.28 4.8 0.448 5.12a28.352 28.352 0 0 1-23.232 27.84l-5.12 0.448h-112.128a28.352 28.352 0 0 1-27.904-23.232l-0.448-5.12V523.2c0-15.616 12.672-28.352 28.352-28.352zM243.84 185.856h-59.52a59.328 59.328 0 0 0-58.944 52.352l-0.384 6.976v59.52h772.48v-59.52a59.52 59.52 0 0 0-52.48-58.944l-6.912-0.384h-59.456v47.168a12.16 12.16 0 0 1-9.152 11.776l-3.456 0.448h-34.176a12.608 12.608 0 0 1-12.16-8.96l-0.448-3.264v-47.168h-416v47.168a12.16 12.16 0 0 1-9.152 11.776l-3.456 0.448h-34.176a12.608 12.608 0 0 1-12.16-8.96l-0.448-3.264v-47.168z"></path>
</svg>
