<svg width="512.000000"
	height="512.000000"
	viewBox="0 0 512 512"
	fill="none"
	xmlns="http://www.w3.org/2000/svg"
>
  <g clip-path="url(#clip4_5)">
    <path id="path"
      d="M499.064 75.4369L269.291 492.413C264.547 501.022 252.359 501.073 247.543 492.506L13.2141 75.4771C7.96814 66.1411 15.8346 54.8326 26.2593 56.7235L256.278 98.4488C257.746 98.7149 259.248 98.7124 260.715 98.441L485.924 56.7834C496.314 54.8616 504.218 66.0825 499.064 75.4369Z"
      fill-rule="evenodd"
      fill="url(#paint_linear_4_6_0)" />
    <path id="path"
      d="M365.849 1.99522L195.81 35.8085C193.015 36.3642 190.946 38.7679 190.777 41.6524L180.318 220.933C180.072 225.156 183.893 228.433 187.954 227.483L235.295 216.395C239.725 215.358 243.727 219.317 242.817 223.838L228.752 293.735C227.805 298.439 232.157 302.461 236.684 301.066L265.924 292.05C270.457 290.654 274.813 294.688 273.854 299.396L251.502 409.188C250.103 416.056 259.104 419.801 262.858 413.913L265.366 409.98L403.923 129.359C406.243 124.66 402.242 119.302 397.157 120.298L348.427 129.843C343.848 130.739 339.952 126.411 341.244 121.864L373.049 9.96986C374.343 5.41541 370.433 1.08374 365.849 1.99522Z"
      fill-rule="evenodd"
      fill="url(#paint_linear_4_7_0)" />
    <path id="path"
      d="M345.764 286.474C353.79 281.959 363.029 279.382 372.863 279.382C421.398 279.382 460.743 319.212 460.743 368.348C460.743 417.478 421.398 457.311 372.863 457.311C364.154 457.325 355.633 456.051 347.299 453.487C338.966 450.924 331.185 447.184 323.955 442.268C340.885 441.386 355.318 430.942 362.098 416.173C362.86 414.504 363.532 412.781 364.095 411.009C373.852 406.174 381.918 399.305 388.293 390.401C396.088 379.521 400.692 367.058 400.692 351.673C400.692 333.926 394.57 323.72 394.546 323.668C393.621 321.729 392.506 319.909 391.203 318.208C389.899 316.506 388.435 314.961 386.81 313.572C385.185 312.182 383.435 310.98 381.56 309.963C379.685 308.947 377.726 308.139 375.683 307.541C373.64 306.942 371.557 306.565 369.436 306.41C367.314 306.255 365.2 306.326 363.094 306.621C360.987 306.917 358.933 307.432 356.934 308.165C354.934 308.898 353.031 309.834 351.226 310.973C346.959 313.671 343.562 317.222 341.033 321.625C341.006 321.673 340.976 321.719 340.952 321.768C340.307 322.903 339.738 324.075 339.243 325.285L339.153 325.508C338.927 326.081 338.713 326.664 338.514 327.252L338.454 327.448C337.601 330.077 337.111 332.774 336.982 335.537C337.217 330.146 336.143 325.035 333.759 320.203C332.005 316.65 329.669 313.544 326.751 310.888C326.676 310.809 326.576 310.723 326.492 310.647C325.599 309.848 324.569 309.568 323.4 309.808C323.358 309.814 323.31 309.832 323.268 309.845C323.488 309.421 323.702 309 323.931 308.585Q327.994 301.172 333.756 295.478Q339.044 290.252 345.764 286.474ZM336.977 335.637C336.979 335.604 336.98 335.571 336.982 335.537C336.98 335.571 336.979 335.604 336.977 335.637Z"
      fill-rule="evenodd"
      fill="url(#paint_linear_4_8_0)" />
    <path id="path"
      d="M394.546 323.668C393.349 321.159 391.842 318.857 390.026 316.763C388.21 314.67 386.15 312.86 383.846 311.334C381.543 309.809 379.08 308.623 376.457 307.776C373.834 306.93 371.147 306.455 368.397 306.35C365.646 306.245 362.932 306.514 360.253 307.158C357.575 307.801 355.031 308.796 352.62 310.142C350.21 311.487 348.021 313.135 346.054 315.084C344.087 317.033 342.413 319.214 341.033 321.625C340.355 322.804 339.76 324.024 339.246 325.285L339.156 325.508C338.927 326.083 338.714 326.665 338.517 327.252L338.454 327.448C337.586 330.108 337.095 332.838 336.981 335.638C336.725 341.207 337.89 346.454 340.476 351.377C342.54 355.294 345.311 358.604 348.789 361.308C354.789 365.966 359.301 371.82 362.387 378.808C364.262 383.069 365.453 387.518 365.96 392.155C366.672 398.575 366.049 404.86 364.092 411.009C373.849 406.173 381.916 399.304 388.293 390.402C396.088 379.521 400.692 367.058 400.692 351.673C400.692 333.926 394.57 323.72 394.546 323.668Z"
      fill-rule="evenodd"
      fill="#FFFFFF" />
    <path id="path"
      d="M363.827 349.348C365.405 349.373 366.926 349.089 368.391 348.495C369.855 347.901 371.15 347.044 372.274 345.923C373.398 344.803 374.265 343.506 374.874 342.032C375.483 340.559 375.788 339.024 375.787 337.426C375.787 335.829 375.482 334.294 374.872 332.821C374.262 331.348 373.394 330.051 372.27 328.931C371.145 327.811 369.85 326.955 368.385 326.361C366.92 325.768 365.399 325.485 363.821 325.511C362.276 325.536 360.794 325.857 359.373 326.473C357.953 327.089 356.701 327.955 355.618 329.07C354.534 330.186 353.7 331.467 353.115 332.915C352.529 334.362 352.237 335.868 352.237 337.432C352.238 338.997 352.531 340.503 353.117 341.95C353.703 343.397 354.538 344.678 355.622 345.793C356.706 346.907 357.958 347.773 359.379 348.388C360.799 349.004 362.282 349.324 363.827 349.348Z"
      fill-rule="evenodd"
      fill="#060000" />
    <path id="path"
      d="M358.199 340.469C359.188 340.469 360.033 340.114 360.732 339.405C361.432 338.697 361.781 337.841 361.78 336.839C361.779 335.837 361.428 334.983 360.728 334.275C360.027 333.567 359.182 333.214 358.193 333.216C357.204 333.217 356.36 333.572 355.661 334.281C354.963 334.989 354.614 335.844 354.615 336.845C354.616 337.847 354.966 338.701 355.666 339.408C356.365 340.116 357.21 340.469 358.199 340.469Z"
      fill-rule="evenodd"
      fill="#FFFFFF" />
    <path id="path"
      d="M348.756 361.336C345.279 358.631 342.542 355.293 340.479 351.377C338.571 352.087 336.742 352.965 334.992 354.012C336.754 357.848 337.633 361.882 337.628 366.113C337.632 370.187 336.813 374.084 335.173 377.804C333.631 381.298 331.487 384.36 328.74 386.988C335.37 389.06 342.005 389.074 348.644 387.031C353.881 385.414 358.462 382.673 362.387 378.808C359.301 371.818 354.757 365.994 348.756 361.336Z"
      fill-rule="evenodd"
      fill="#F5A800" />
    <path id="path"
      d="M336.944 337.007C336.944 336.546 336.96 336.092 336.981 335.637C336.981 335.637 337.011 334.683 337.011 334.204C337.016 329.756 336.125 325.501 334.337 321.438C332.549 317.376 330.021 313.859 326.751 310.888C326.676 310.805 326.589 310.732 326.504 310.659C325.608 309.85 324.578 309.565 323.401 309.805C323.355 309.817 323.313 309.836 323.268 309.845C321.04 310.517 318.859 311.37 316.765 312.393C314.672 313.416 312.672 314.601 310.767 315.949C308.861 317.296 307.074 318.789 305.404 320.426C303.735 322.064 302.205 323.826 300.815 325.712C299.425 327.598 298.192 329.584 297.117 331.67C296.041 333.756 295.137 335.916 294.403 338.149C293.67 340.382 293.117 342.659 292.744 344.982C292.372 347.305 292.184 349.643 292.182 351.996C292.182 355.513 292.604 358.929 293.372 362.208C293.435 362.47 293.487 362.733 293.553 362.992C294.413 366.343 295.646 369.547 297.251 372.604C298.857 375.661 300.792 378.487 303.056 381.082C305.32 383.677 307.851 385.971 310.649 387.962C313.446 389.953 316.435 391.588 319.613 392.866C318.58 389.187 318.166 385.439 318.372 381.62C318.712 375.2 320.691 369.347 324.308 364.063C328.376 358.108 333.765 353.878 340.476 351.374C338.116 346.883 336.939 342.094 336.944 337.007Z"
      fill-rule="evenodd"
      fill="#FFD100" />
  </g>
  <defs>
    <linearGradient id="paint_linear_4_6_0"
      x1="7.492722"
      y1="41.821381"
      x2="293.463562"
      y2="435.960358"
      gradientUnits="userSpaceOnUse">
      <stop stop-color="#41D1FF" />
      <stop offset="1.000000" stop-color="#BD34FE" />
    </linearGradient>
    <linearGradient id="paint_linear_4_7_0"
      x1="243.076385"
      y1="11.175459"
      x2="294.807037"
      y2="371.312805"
      gradientUnits="userSpaceOnUse">
      <stop stop-color="#FFEA83" />
      <stop offset="0.083333" stop-color="#FFDD35" />
      <stop offset="1.000000" stop-color="#FFA800" />
    </linearGradient>
    <linearGradient id="paint_linear_4_8_0"
      x1="352.047913"
      y1="279.381897"
      x2="391.954285"
      y2="457.311676"
      gradientUnits="userSpaceOnUse">
      <stop stop-color="#41D1FF" stop-opacity="0.988235" />
      <stop offset="0.740458" stop-color="#BD34FE" />
      <stop offset="1.000000" stop-color="#BD34FE" />
    </linearGradient>
    <linearGradient id="paint_linear_5_6_0"
      x1="7.492813"
      y1="41.820694"
      x2="293.463684"
      y2="435.959595"
      gradientUnits="userSpaceOnUse">
      <stop stop-color="#41D1FF" />
      <stop offset="1.000000" stop-color="#BD34FE" />
    </linearGradient>
    <linearGradient id="paint_linear_5_7_0"
      x1="243.075958"
      y1="11.175445"
      x2="294.806763"
      y2="371.312683"
      gradientUnits="userSpaceOnUse">
      <stop stop-color="#FFEA83" />
      <stop offset="0.083333" stop-color="#FFDD35" />
      <stop offset="1.000000" stop-color="#FFA800" />
    </linearGradient>
    <linearGradient id="paint_linear_5_8_0"
      x1="352.048279"
      y1="279.382080"
      x2="391.954590"
      y2="457.311829"
      gradientUnits="userSpaceOnUse">
      <stop stop-color="#41D1FF" stop-opacity="0.984314" />
      <stop offset="0.740458" stop-color="#BD34FE" />
      <stop offset="1.000000" stop-color="#BD34FE" />
    </linearGradient>
  </defs>
</svg>
