<svg width="192.000000"
  height="192.000000"
  viewBox="0 0 192 192"
  fill="none"
  xmlns="http://www.w3.org/2000/svg">
  <g clip-path="url(#clip4_5)">
    <path id="path"
      d="M187.149 28.2888L100.984 184.655C99.205 187.883 94.6344 187.902 92.8287 184.69L4.95526 28.3039C2.98804 24.8029 5.93799 20.5622 9.84723 21.2713L96.1044 36.9183C96.6546 37.0181 97.218 37.0171 97.7682 36.9154L182.222 21.2938C186.118 20.5731 189.082 24.7809 187.149 28.2888Z"
      fill-rule="evenodd"
      fill="url(#paint_linear_4_6_0)" />
    <path id="path"
      d="M137.193 0.748199L73.4287 13.4282C72.3807 13.6366 71.6047 14.5379 71.5415 15.6197L67.6191 82.8499C67.5268 84.4334 68.9598 85.6624 70.4827 85.306L88.2357 81.148C89.8967 80.7593 91.3976 82.2439 91.0562 83.9392L85.7818 110.15C85.4268 111.915 87.0589 113.423 88.7564 112.9L99.7215 109.519C101.421 108.995 103.055 110.508 102.695 112.273L94.3132 153.446C93.7887 156.021 97.1642 157.425 98.5718 155.217L99.5122 153.743L151.471 48.5094C152.341 46.7475 150.841 44.7384 148.934 45.1118L130.66 48.691C128.943 49.027 127.482 47.404 127.967 45.699L139.894 3.73869C140.379 2.03077 138.912 0.406395 137.193 0.748199Z"
      fill-rule="evenodd"
      fill="url(#paint_linear_4_7_0)" />
    <path id="path"
      d="M129.661 107.428C132.671 105.735 136.136 104.768 139.824 104.768C158.024 104.768 172.779 119.704 172.779 138.131C172.779 156.554 158.024 171.492 139.824 171.492C136.558 171.497 133.362 171.019 130.237 170.058C127.112 169.097 124.194 167.694 121.483 165.85C127.832 165.52 133.244 161.603 135.787 156.065C136.072 155.439 136.324 154.793 136.536 154.128C140.195 152.315 143.219 149.74 145.61 146.401C148.533 142.32 150.26 137.647 150.26 131.877C150.26 125.222 147.964 121.395 147.955 121.376C147.608 120.649 147.19 119.966 146.701 119.328C146.212 118.69 145.663 118.11 145.054 117.589C144.444 117.068 143.788 116.617 143.085 116.236C142.382 115.855 141.647 115.552 140.881 115.328C140.115 115.103 139.334 114.962 138.538 114.904C137.743 114.846 136.95 114.872 136.16 114.983C135.37 115.094 134.6 115.287 133.85 115.562C133.1 115.837 132.387 116.188 131.71 116.615C130.11 117.627 128.836 118.958 127.887 120.609C127.877 120.628 127.866 120.645 127.857 120.663C127.615 121.089 127.402 121.528 127.216 121.982L127.182 122.065C127.098 122.28 127.017 122.499 126.943 122.72L126.92 122.793C126.601 123.779 126.417 124.79 126.368 125.827C126.456 123.805 126.054 121.888 125.16 120.076C124.502 118.744 123.626 117.579 122.532 116.583C122.503 116.553 122.466 116.521 122.434 116.493C122.1 116.193 121.713 116.088 121.275 116.178C121.259 116.18 121.241 116.187 121.225 116.192C121.308 116.033 121.388 115.875 121.474 115.719Q122.998 112.939 125.158 110.804L125.158 110.804Q127.142 108.844 129.661 107.428Z"
      fill-rule="evenodd"
      fill="url(#paint_linear_4_8_0)" />
    <path id="path"
      d="M147.955 121.376C147.506 120.435 146.941 119.571 146.26 118.786C145.579 118.001 144.806 117.322 143.942 116.75C143.078 116.178 142.155 115.733 141.171 115.416C140.188 115.099 139.18 114.92 138.149 114.881C137.117 114.842 136.099 114.943 135.095 115.184C134.091 115.426 133.137 115.799 132.233 116.303C131.329 116.808 130.508 117.426 129.77 118.157C129.033 118.888 128.405 119.705 127.887 120.609C127.633 121.051 127.41 121.509 127.217 121.982L127.184 122.065C127.098 122.281 127.018 122.499 126.944 122.72L126.92 122.793C126.595 123.791 126.411 124.814 126.368 125.864C126.272 127.953 126.709 129.92 127.678 131.766C128.452 133.235 129.491 134.477 130.796 135.491C133.046 137.237 134.738 139.432 135.895 142.053C136.598 143.651 137.045 145.319 137.235 147.058C137.502 149.466 137.268 151.822 136.535 154.128C140.193 152.315 143.218 149.739 145.61 146.401C148.533 142.321 150.26 137.647 150.26 131.877C150.26 125.222 147.964 121.395 147.955 121.376Z"
      fill-rule="evenodd"
      fill="#FFFFFF" />
    <path id="path"
      d="M136.435 131.006C137.027 131.015 137.597 130.908 138.146 130.686C138.696 130.463 139.181 130.142 139.603 129.721C140.024 129.301 140.349 128.815 140.578 128.262C140.806 127.71 140.92 127.134 140.92 126.535C140.92 125.936 140.806 125.36 140.577 124.808C140.348 124.255 140.023 123.769 139.601 123.349C139.179 122.929 138.694 122.608 138.144 122.386C137.595 122.163 137.024 122.057 136.433 122.067C135.854 122.076 135.298 122.196 134.765 122.427C134.232 122.659 133.763 122.983 133.357 123.401C132.95 123.82 132.637 124.3 132.418 124.843C132.199 125.386 132.089 125.951 132.089 126.537C132.089 127.124 132.199 127.688 132.419 128.231C132.639 128.774 132.952 129.254 133.358 129.672C133.765 130.09 134.234 130.415 134.767 130.646C135.3 130.876 135.856 130.996 136.435 131.006Z"
      fill-rule="evenodd"
      fill="#060000" />
    <path id="path"
      d="M134.324 127.676C134.696 127.676 135.012 127.543 135.275 127.277C135.537 127.011 135.668 126.69 135.667 126.315C135.667 125.939 135.536 125.619 135.273 125.353C135.01 125.088 134.693 124.955 134.322 124.956C133.951 124.956 133.635 125.09 133.373 125.355C133.111 125.621 132.98 125.942 132.981 126.317C132.981 126.692 133.112 127.013 133.375 127.278C133.637 127.543 133.954 127.676 134.324 127.676Z"
      fill-rule="evenodd"
      fill="#FFFFFF" />
    <path id="path"
      d="M130.783 135.501C129.48 134.487 128.453 133.235 127.679 131.766C126.964 132.033 126.278 132.362 125.622 132.755C126.283 134.193 126.612 135.706 126.611 137.292C126.612 138.82 126.305 140.281 125.69 141.677C125.112 142.987 124.308 144.135 123.277 145.121C125.764 145.897 128.252 145.903 130.742 145.137C132.705 144.53 134.423 143.502 135.895 142.053C134.738 139.432 133.034 137.248 130.783 135.501Z"
      fill-rule="evenodd"
      fill="#F5A800" />
    <path id="path"
      d="M126.354 126.378C126.354 126.205 126.36 126.034 126.368 125.864C126.368 125.864 126.379 125.506 126.379 125.326C126.381 123.659 126.047 122.063 125.376 120.539C124.706 119.016 123.758 117.697 122.532 116.583C122.503 116.552 122.471 116.525 122.439 116.497C122.103 116.194 121.717 116.087 121.275 116.177C121.258 116.181 121.242 116.188 121.226 116.192C120.39 116.444 119.572 116.764 118.787 117.147C118.002 117.531 117.252 117.975 116.538 118.481C115.823 118.986 115.153 119.546 114.527 120.16C113.901 120.774 113.327 121.435 112.806 122.142C112.284 122.849 111.822 123.594 111.419 124.376C111.015 125.159 110.676 125.968 110.401 126.806C110.126 127.643 109.919 128.497 109.779 129.368C109.639 130.239 109.569 131.116 109.568 131.998C109.568 133.317 109.726 134.598 110.015 135.828C110.038 135.926 110.057 136.025 110.082 136.122C110.405 137.379 110.867 138.58 111.469 139.727C112.071 140.873 112.797 141.933 113.646 142.906C114.495 143.879 115.444 144.739 116.493 145.486C117.542 146.232 118.663 146.845 119.855 147.325C119.468 145.945 119.312 144.539 119.389 143.107C119.517 140.7 120.259 138.505 121.615 136.524C123.141 134.291 125.162 132.704 127.678 131.765C126.793 130.081 126.352 128.285 126.354 126.378Z"
      fill-rule="evenodd"
      fill="#FFD100" />
  </g>
  <defs>
    <linearGradient id="paint_linear_4_6_0"
      x1="2.809784"
      y1="15.683010"
      x2="110.048836"
      y2="163.485123"
      gradientUnits="userSpaceOnUse">
      <stop stop-color="#41D1FF" />
      <stop offset="1.000000" stop-color="#BD34FE" />
    </linearGradient>
    <linearGradient id="paint_linear_4_7_0"
      x1="91.153580"
      y1="4.190798"
      x2="110.552635"
      y2="139.242294"
      gradientUnits="userSpaceOnUse">
      <stop stop-color="#FFEA83" />
      <stop offset="0.083333" stop-color="#FFDD35" />
      <stop offset="1.000000" stop-color="#FFA800" />
    </linearGradient>
    <linearGradient id="paint_linear_4_8_0"
      x1="132.018005"
      y1="104.768219"
      x2="146.982864"
      y2="171.491867"
      gradientUnits="userSpaceOnUse">
      <stop stop-color="#41D1FF" stop-opacity="0.988235" />
      <stop offset="0.740458" stop-color="#BD34FE" />
      <stop offset="1.000000" stop-color="#BD34FE" />
    </linearGradient>
    <linearGradient id="paint_linear_5_6_0"
      x1="2.809792"
      y1="15.682774"
      x2="110.048866"
      y2="163.484848"
      gradientUnits="userSpaceOnUse">
      <stop stop-color="#41D1FF" />
      <stop offset="1.000000" stop-color="#BD34FE" />
    </linearGradient>
    <linearGradient id="paint_linear_5_7_0"
      x1="91.153374"
      y1="4.190813"
      x2="110.552536"
      y2="139.242264"
      gradientUnits="userSpaceOnUse">
      <stop stop-color="#FFEA83" />
      <stop offset="0.083333" stop-color="#FFDD35" />
      <stop offset="1.000000" stop-color="#FFA800" />
    </linearGradient>
    <linearGradient id="paint_linear_5_8_0"
      x1="132.018112"
      y1="104.768265"
      x2="146.982986"
      y2="171.491928"
      gradientUnits="userSpaceOnUse">
      <stop stop-color="#41D1FF" stop-opacity="0.984314" />
      <stop offset="0.740458" stop-color="#BD34FE" />
      <stop offset="1.000000" stop-color="#BD34FE" />
    </linearGradient>
  </defs>
</svg>
